g the_stand
v -1.83602583 0.63591268 0
v -1.83828198 0.63336585 0
v -1.84574437 0.62655055 0
v -1.84833631 0.62426947 0
v -1.86377166 0.61100534 0
v -1.86639387 0.6087863 0
v -1.87933667 0.59792879 0
v -1.8819908 0.59571915 0
v -1.91875524 0.56550311 0
v -1.92138418 0.5633517 0
v -1.96344709 0.5289292 0
v -1.96607603 0.5267778 0
v -1.96846449 0.52451235 0
v -1.96848452 0.49733603 0
v -1.96847431 0.4939142 0
v -1.96843224 0.49053433 0
v -1.96834923 0.48716287 0
v -1.96821081 0.48378203 0
v -1.96799031 0.48034547 0
v -1.96765506 0.47697116 0
v -1.96712563 0.47363549 0
v -1.96619899 0.47039135 0
v -1.96408041 0.46780184 0
v -1.96080699 0.46705423 0
v -1.95743485 0.46647567 0
v -1.9541188 0.4659579 0
v -1.94060271 0.46407358 0
v -1.93726291 0.46364259 0
v -1.90688866 0.46007267 0
v -1.90351356 0.4596873 0
v -1.89001316 0.45814584 0
v -1.88663806 0.45776047 0
v -1.88358246 0.45709001 0
v -1.88358246 0.45029593 0
v -1.88358246 0.44689889 0
v -1.88336074 0.4401523 0
v -1.88319441 0.43668686 0
v -1.88302185 0.43332324 0
v -1.8820697 0.41639028 0
v -1.88186809 0.41299073 0
v -1.88124888 0.40278852 0
v -1.88104475 0.39949098 0
v -1.87907826 0.36895269 0
v -1.87884353 0.36543466 0
v -1.87684064 0.33495104 0
v -1.87662372 0.33156045 0
v -1.87451615 0.29775472 0
v -1.87430562 0.29428523 0
v -1.87329595 0.27735457 0
v -1.87309939 0.27399184 0
v -1.87085684 0.23326232 0
v -1.87065178 0.22989822 0
v -1.87042699 0.22646517 0
v -1.87018661 0.22310067 0
v -1.86960812 0.21631401 0
v -1.86924282 0.2129351 0
v -1.86878979 0.20960307 0
v -1.86816103 0.20627898 0
v -1.86707842 0.20307255 0
v -1.86449654 0.20180165 0
v -1.86315441 0.19884194 0
v -1.86266645 0.19506557 0
v -1.86239284 0.19189348 0
v -1.86198399 0.18517138 0
v -1.86182698 0.18176914 0
v -1.86136191 0.16784039 0
v -1.86128516 0.16481565 0
v -1.86084183 0.14105757 0
v -1.86079483 0.13769375 0
v -1.86059434 0.12061796 0
v -1.86055757 0.11690083 0
v -1.86036889 0.09380898 0
v -1.86034175 0.08979018 0
v -1.86017778 0.05987434 0
v -1.86016237 0.05641453 0
v -1.86001022 0.01203894 0
v -1.86000182 0.00881645 0
v -1.85983775 -0.10348044 0
v -1.85983566 -0.10655025 0
v -1.85980414 -0.63347659 0
v -1.85980414 -0.63687363 0
v -1.85815349 -0.63862002 0
v 1.84460708 -0.63862002 0
v 1.84800411 -0.63862002 0
v 1.84961439 -0.63683231 0
v 1.85009559 0.25998625 0
v 1.85009742 0.26338329 0
v 1.85015042 0.26654655 0
v 1.86294759 0.23875823 0
v 1.86437217 0.23572609 0
v 1.86887455 0.22655128 0
v 1.87043871 0.22352833 0
v 1.87203242 0.22056332 0
v 1.87372599 0.21759274 0
v 1.87559367 0.21474905 0
v 1.87753837 0.21591282 0
v 1.87882641 0.21911746 0
v 1.88109649 0.22546452 0
v 1.88219962 0.22872065 0
v 1.88535178 0.23841147 0
v 1.88638453 0.24168536 0
v 1.88837135 0.24809933 0
v 1.88937067 0.25137943 0
v 1.89036355 0.2546729 0
v 1.89131313 0.25785452 0
v 1.91336446 0.33305228 0
v 1.91421342 0.33594231 0
v 1.9296823 0.3883016 0
v 1.93065634 0.39156502 0
v 1.93260405 0.39806961 0
v 1.93350902 0.40108089 0
v 1.94146125 0.42706792 0
v 1.94258347 0.43062916 0
v 1.946765 0.44346075 0
v 1.94779629 0.446472 0
v 1.94904109 0.44998679 0
v 1.95022588 0.45317709 0
v 1.95139578 0.4561344 0
v 1.95285093 0.45945631 0
v 1.95435216 0.46232359 0
v 1.95636606 0.46499141 0
v 1.95950252 0.46664221 0
v 1.96259471 0.46748945 0
v 1.9655411 0.46914453 0
v 1.96717993 0.47205431 0
v 1.96785733 0.47541852 0
v 1.96815438 0.47879051 0
v 1.96829487 0.48215401 0
v 1.96835971 0.48558467 0
v 1.96826733 0.51615184 0
v 1.96825 0.51954884 0
v 1.96823266 0.52294584 0
v 1.96702739 0.525761 0
v 1.82802281 0.63476298 0
v 1.82534962 0.63685914 0
v 1.82256066 0.63862002 0
v -0.1095105 0.63861574 0
v -0.11292544 0.63861545 0
v -0.49086868 0.63852301 0
v -0.49457137 0.63852149 0
v -0.72192929 0.63840301 0
v -0.72587654 0.6384005 0
v -0.89325101 0.63827824 0
v -0.89347008 0.63827806 0
v -1.02914657 0.6381541 0
v -1.02973087 0.63815351 0
v -1.13570685 0.6380386 0
v -1.14028819 0.63803323 0
v -1.23281288 0.637917 0
v -1.23439803 0.63791487 0
v -1.30820743 0.63780995 0
v -1.31315142 0.6378025 0
v -1.420074 0.63762602 0
v -1.42529193 0.63761658 0
v -1.53297283 0.63739991 0
v -1.53848888 0.63738751 0
v -1.60203143 0.63723283 0
v -1.60546067 0.63722378 0
v -1.66134925 0.63706327 0
v -1.66729901 0.63704449 0
v -1.72113774 0.63685416 0
v -1.72373914 0.63684381 0
v -1.76300848 0.63666814 0
v -1.76545576 0.63665566 0
v -1.8173633 0.6362983 0
v -1.81953414 0.63627535 0
v -1.83437771 0.63602781 0
v -1.83602583 0.63591268 0
v -1.83828198 0.63336585 0
v -1.84574437 0.62655055 0
v -1.84833631 0.62426947 0
v -1.86377166 0.61100534 0
v -1.86639387 0.6087863 0
v -1.87933667 0.59792879 0
v -1.8819908 0.59571915 0
v -1.91875524 0.56550311 0
v -1.92138418 0.5633517 0
v -1.96344709 0.5289292 0
v -1.96607603 0.5267778 0
v -1.96846449 0.52451235 0
v -1.96848452 0.49733603 0
v -1.96847431 0.4939142 0
v -1.96843224 0.49053433 0
v -1.96834923 0.48716287 0
v -1.96821081 0.48378203 0
v -1.96799031 0.48034547 0
v -1.96765506 0.47697116 0
v -1.96712563 0.47363549 0
v -1.96619899 0.47039135 0
v -1.96408041 0.46780184 0
v -1.96080699 0.46705423 0
v -1.95743485 0.46647567 0
v -1.9541188 0.4659579 0
v -1.94060271 0.46407358 0
v -1.93726291 0.46364259 0
v -1.90688866 0.46007267 0
v -1.90351356 0.4596873 0
v -1.89001316 0.45814584 0
v -1.88663806 0.45776047 0
v -1.88358246 0.45709001 0
v -1.88358246 0.45029593 0
v -1.88358246 0.44689889 0
v -1.88336074 0.4401523 0
v -1.88319441 0.43668686 0
v -1.88302185 0.43332324 0
v -1.8820697 0.41639028 0
v -1.88186809 0.41299073 0
v -1.88124888 0.40278852 0
v -1.88104475 0.39949098 0
v -1.87907826 0.36895269 0
v -1.87884353 0.36543466 0
v -1.87684064 0.33495104 0
v -1.87662372 0.33156045 0
v -1.87451615 0.29775472 0
v -1.87430562 0.29428523 0
v -1.87329595 0.27735457 0
v -1.87309939 0.27399184 0
v -1.87085684 0.23326232 0
v -1.87065178 0.22989822 0
v -1.87042699 0.22646517 0
v -1.87018661 0.22310067 0
v -1.86960812 0.21631401 0
v -1.86924282 0.2129351 0
v -1.86878979 0.20960307 0
v -1.86816103 0.20627898 0
v -1.86707842 0.20307255 0
v -1.86449654 0.20180165 0
v -1.86315441 0.19884194 0
v -1.86266645 0.19506557 0
v -1.86239284 0.19189348 0
v -1.86198399 0.18517138 0
v -1.86182698 0.18176914 0
v -1.86136191 0.16784039 0
v -1.86128516 0.16481565 0
v -1.86084183 0.14105757 0
v -1.86079483 0.13769375 0
v -1.86059434 0.12061796 0
v -1.86055757 0.11690083 0
v -1.86036889 0.09380898 0
v -1.86034175 0.08979018 0
v -1.86017778 0.05987434 0
v -1.86016237 0.05641453 0
v -1.86001022 0.01203894 0
v -1.86000182 0.00881645 0
v -1.85983775 -0.10348044 0
v -1.85983566 -0.10655025 0
v -1.85980414 -0.63347659 0
v -1.85980414 -0.63687363 0
v -1.85815349 -0.63862002 0
v 1.84460708 -0.63862002 0
v 1.84800411 -0.63862002 0
v 1.84961439 -0.63683231 0
v 1.85009559 0.25998625 0
v 1.85009742 0.26338329 0
v 1.85015042 0.26654655 0
v 1.86294759 0.23875823 0
v 1.86437217 0.23572609 0
v 1.86887455 0.22655128 0
v 1.87043871 0.22352833 0
v 1.87203242 0.22056332 0
v 1.87372599 0.21759274 0
v 1.87559367 0.21474905 0
v 1.87753837 0.21591282 0
v 1.87882641 0.21911746 0
v 1.88109649 0.22546452 0
v 1.88219962 0.22872065 0
v 1.88535178 0.23841147 0
v 1.88638453 0.24168536 0
v 1.88837135 0.24809933 0
v 1.88937067 0.25137943 0
v 1.89036355 0.2546729 0
v 1.89131313 0.25785452 0
v 1.91336446 0.33305228 0
v 1.91421342 0.33594231 0
v 1.9296823 0.3883016 0
v 1.93065634 0.39156502 0
v 1.93260405 0.39806961 0
v 1.93350902 0.40108089 0
v 1.94146125 0.42706792 0
v 1.94258347 0.43062916 0
v 1.946765 0.44346075 0
v 1.94779629 0.446472 0
v 1.94904109 0.44998679 0
v 1.95022588 0.45317709 0
v 1.95139578 0.4561344 0
v 1.95285093 0.45945631 0
v 1.95435216 0.46232359 0
v 1.95636606 0.46499141 0
v 1.95950252 0.46664221 0
v 1.96259471 0.46748945 0
v 1.9655411 0.46914453 0
v 1.96717993 0.47205431 0
v 1.96785733 0.47541852 0
v 1.96815438 0.47879051 0
v 1.96829487 0.48215401 0
v 1.96835971 0.48558467 0
v 1.96826733 0.51615184 0
v 1.96825 0.51954884 0
v 1.96823266 0.52294584 0
v 1.96702739 0.525761 0
v 1.82802281 0.63476298 0
v 1.82534962 0.63685914 0
v 1.82256066 0.63862002 0
v -0.1095105 0.63861574 0
v -0.11292544 0.63861545 0
v -0.49086868 0.63852301 0
v -0.49457137 0.63852149 0
v -0.72192929 0.63840301 0
v -0.72587654 0.6384005 0
v -0.89325101 0.63827824 0
v -0.89347008 0.63827806 0
v -1.02914657 0.6381541 0
v -1.02973087 0.63815351 0
v -1.13570685 0.6380386 0
v -1.14028819 0.63803323 0
v -1.23281288 0.637917 0
v -1.23439803 0.63791487 0
v -1.30820743 0.63780995 0
v -1.31315142 0.6378025 0
v -1.420074 0.63762602 0
v -1.42529193 0.63761658 0
v -1.53297283 0.63739991 0
v -1.53848888 0.63738751 0
v -1.60203143 0.63723283 0
v -1.60546067 0.63722378 0
v -1.66134925 0.63706327 0
v -1.66729901 0.63704449 0
v -1.72113774 0.63685416 0
v -1.72373914 0.63684381 0
v -1.76300848 0.63666814 0
v -1.76545576 0.63665566 0
v -1.8173633 0.6362983 0
v -1.81953414 0.63627535 0
v -1.83437771 0.63602781 0
vn 0 0 0
vn 0 0 1
vn 0 0 -1
usemtl mat0
f 2//1 1//1 168//1
f 168//1 169//1 2//1
f 3//1 2//1 169//1
f 169//1 170//1 3//1
f 4//1 3//1 170//1
f 170//1 171//1 4//1
f 5//1 4//1 171//1
f 171//1 172//1 5//1
f 6//1 5//1 172//1
f 172//1 173//1 6//1
f 7//1 6//1 173//1
f 173//1 174//1 7//1
f 8//1 7//1 174//1
f 174//1 175//1 8//1
f 9//1 8//1 175//1
f 175//1 176//1 9//1
f 10//1 9//1 176//1
f 176//1 177//1 10//1
f 11//1 10//1 177//1
f 177//1 178//1 11//1
f 12//1 11//1 178//1
f 178//1 179//1 12//1
f 13//1 12//1 179//1
f 179//1 180//1 13//1
f 14//1 13//1 180//1
f 180//1 181//1 14//1
f 15//1 14//1 181//1
f 181//1 182//1 15//1
f 16//1 15//1 182//1
f 182//1 183//1 16//1
f 17//1 16//1 183//1
f 183//1 184//1 17//1
f 18//1 17//1 184//1
f 184//1 185//1 18//1
f 19//1 18//1 185//1
f 185//1 186//1 19//1
f 20//1 19//1 186//1
f 186//1 187//1 20//1
f 21//1 20//1 187//1
f 187//1 188//1 21//1
f 22//1 21//1 188//1
f 188//1 189//1 22//1
f 23//1 22//1 189//1
f 189//1 190//1 23//1
f 24//1 23//1 190//1
f 190//1 191//1 24//1
f 25//1 24//1 191//1
f 191//1 192//1 25//1
f 26//1 25//1 192//1
f 192//1 193//1 26//1
f 27//1 26//1 193//1
f 193//1 194//1 27//1
f 28//1 27//1 194//1
f 194//1 195//1 28//1
f 29//1 28//1 195//1
f 195//1 196//1 29//1
f 30//1 29//1 196//1
f 196//1 197//1 30//1
f 31//1 30//1 197//1
f 197//1 198//1 31//1
f 32//1 31//1 198//1
f 198//1 199//1 32//1
f 33//1 32//1 199//1
f 199//1 200//1 33//1
f 34//1 33//1 200//1
f 200//1 201//1 34//1
f 35//1 34//1 201//1
f 201//1 202//1 35//1
f 36//1 35//1 202//1
f 202//1 203//1 36//1
f 37//1 36//1 203//1
f 203//1 204//1 37//1
f 38//1 37//1 204//1
f 204//1 205//1 38//1
f 39//1 38//1 205//1
f 205//1 206//1 39//1
f 40//1 39//1 206//1
f 206//1 207//1 40//1
f 41//1 40//1 207//1
f 207//1 208//1 41//1
f 42//1 41//1 208//1
f 208//1 209//1 42//1
f 43//1 42//1 209//1
f 209//1 210//1 43//1
f 44//1 43//1 210//1
f 210//1 211//1 44//1
f 45//1 44//1 211//1
f 211//1 212//1 45//1
f 46//1 45//1 212//1
f 212//1 213//1 46//1
f 47//1 46//1 213//1
f 213//1 214//1 47//1
f 48//1 47//1 214//1
f 214//1 215//1 48//1
f 49//1 48//1 215//1
f 215//1 216//1 49//1
f 50//1 49//1 216//1
f 216//1 217//1 50//1
f 51//1 50//1 217//1
f 217//1 218//1 51//1
f 52//1 51//1 218//1
f 218//1 219//1 52//1
f 53//1 52//1 219//1
f 219//1 220//1 53//1
f 54//1 53//1 220//1
f 220//1 221//1 54//1
f 55//1 54//1 221//1
f 221//1 222//1 55//1
f 56//1 55//1 222//1
f 222//1 223//1 56//1
f 57//1 56//1 223//1
f 223//1 224//1 57//1
f 58//1 57//1 224//1
f 224//1 225//1 58//1
f 59//1 58//1 225//1
f 225//1 226//1 59//1
f 60//1 59//1 226//1
f 226//1 227//1 60//1
f 61//1 60//1 227//1
f 227//1 228//1 61//1
f 62//1 61//1 228//1
f 228//1 229//1 62//1
f 63//1 62//1 229//1
f 229//1 230//1 63//1
f 64//1 63//1 230//1
f 230//1 231//1 64//1
f 65//1 64//1 231//1
f 231//1 232//1 65//1
f 66//1 65//1 232//1
f 232//1 233//1 66//1
f 67//1 66//1 233//1
f 233//1 234//1 67//1
f 68//1 67//1 234//1
f 234//1 235//1 68//1
f 69//1 68//1 235//1
f 235//1 236//1 69//1
f 70//1 69//1 236//1
f 236//1 237//1 70//1
f 71//1 70//1 237//1
f 237//1 238//1 71//1
f 72//1 71//1 238//1
f 238//1 239//1 72//1
f 73//1 72//1 239//1
f 239//1 240//1 73//1
f 74//1 73//1 240//1
f 240//1 241//1 74//1
f 75//1 74//1 241//1
f 241//1 242//1 75//1
f 76//1 75//1 242//1
f 242//1 243//1 76//1
f 77//1 76//1 243//1
f 243//1 244//1 77//1
f 78//1 77//1 244//1
f 244//1 245//1 78//1
f 79//1 78//1 245//1
f 245//1 246//1 79//1
f 80//1 79//1 246//1
f 246//1 247//1 80//1
f 81//1 80//1 247//1
f 247//1 248//1 81//1
f 82//1 81//1 248//1
f 248//1 249//1 82//1
f 83//1 82//1 249//1
f 249//1 250//1 83//1
f 84//1 83//1 250//1
f 250//1 251//1 84//1
f 85//1 84//1 251//1
f 251//1 252//1 85//1
f 86//1 85//1 252//1
f 252//1 253//1 86//1
f 87//1 86//1 253//1
f 253//1 254//1 87//1
f 88//1 87//1 254//1
f 254//1 255//1 88//1
f 89//1 88//1 255//1
f 255//1 256//1 89//1
f 90//1 89//1 256//1
f 256//1 257//1 90//1
f 91//1 90//1 257//1
f 257//1 258//1 91//1
f 92//1 91//1 258//1
f 258//1 259//1 92//1
f 93//1 92//1 259//1
f 259//1 260//1 93//1
f 94//1 93//1 260//1
f 260//1 261//1 94//1
f 95//1 94//1 261//1
f 261//1 262//1 95//1
f 96//1 95//1 262//1
f 262//1 263//1 96//1
f 97//1 96//1 263//1
f 263//1 264//1 97//1
f 98//1 97//1 264//1
f 264//1 265//1 98//1
f 99//1 98//1 265//1
f 265//1 266//1 99//1
f 100//1 99//1 266//1
f 266//1 267//1 100//1
f 101//1 100//1 267//1
f 267//1 268//1 101//1
f 102//1 101//1 268//1
f 268//1 269//1 102//1
f 103//1 102//1 269//1
f 269//1 270//1 103//1
f 104//1 103//1 270//1
f 270//1 271//1 104//1
f 105//1 104//1 271//1
f 271//1 272//1 105//1
f 106//1 105//1 272//1
f 272//1 273//1 106//1
f 107//1 106//1 273//1
f 273//1 274//1 107//1
f 108//1 107//1 274//1
f 274//1 275//1 108//1
f 109//1 108//1 275//1
f 275//1 276//1 109//1
f 110//1 109//1 276//1
f 276//1 277//1 110//1
f 111//1 110//1 277//1
f 277//1 278//1 111//1
f 112//1 111//1 278//1
f 278//1 279//1 112//1
f 113//1 112//1 279//1
f 279//1 280//1 113//1
f 114//1 113//1 280//1
f 280//1 281//1 114//1
f 115//1 114//1 281//1
f 281//1 282//1 115//1
f 116//1 115//1 282//1
f 282//1 283//1 116//1
f 117//1 116//1 283//1
f 283//1 284//1 117//1
f 118//1 117//1 284//1
f 284//1 285//1 118//1
f 119//1 118//1 285//1
f 285//1 286//1 119//1
f 120//1 119//1 286//1
f 286//1 287//1 120//1
f 121//1 120//1 287//1
f 287//1 288//1 121//1
f 122//1 121//1 288//1
f 288//1 289//1 122//1
f 123//1 122//1 289//1
f 289//1 290//1 123//1
f 124//1 123//1 290//1
f 290//1 291//1 124//1
f 125//1 124//1 291//1
f 291//1 292//1 125//1
f 126//1 125//1 292//1
f 292//1 293//1 126//1
f 127//1 126//1 293//1
f 293//1 294//1 127//1
f 128//1 127//1 294//1
f 294//1 295//1 128//1
f 129//1 128//1 295//1
f 295//1 296//1 129//1
f 130//1 129//1 296//1
f 296//1 297//1 130//1
f 131//1 130//1 297//1
f 297//1 298//1 131//1
f 132//1 131//1 298//1
f 298//1 299//1 132//1
f 133//1 132//1 299//1
f 299//1 300//1 133//1
f 134//1 133//1 300//1
f 300//1 301//1 134//1
f 135//1 134//1 301//1
f 301//1 302//1 135//1
f 136//1 135//1 302//1
f 302//1 303//1 136//1
f 137//1 136//1 303//1
f 303//1 304//1 137//1
f 138//1 137//1 304//1
f 304//1 305//1 138//1
f 139//1 138//1 305//1
f 305//1 306//1 139//1
f 140//1 139//1 306//1
f 306//1 307//1 140//1
f 141//1 140//1 307//1
f 307//1 308//1 141//1
f 142//1 141//1 308//1
f 308//1 309//1 142//1
f 143//1 142//1 309//1
f 309//1 310//1 143//1
f 144//1 143//1 310//1
f 310//1 311//1 144//1
f 145//1 144//1 311//1
f 311//1 312//1 145//1
f 146//1 145//1 312//1
f 312//1 313//1 146//1
f 147//1 146//1 313//1
f 313//1 314//1 147//1
f 148//1 147//1 314//1
f 314//1 315//1 148//1
f 149//1 148//1 315//1
f 315//1 316//1 149//1
f 150//1 149//1 316//1
f 316//1 317//1 150//1
f 151//1 150//1 317//1
f 317//1 318//1 151//1
f 152//1 151//1 318//1
f 318//1 319//1 152//1
f 153//1 152//1 319//1
f 319//1 320//1 153//1
f 154//1 153//1 320//1
f 320//1 321//1 154//1
f 155//1 154//1 321//1
f 321//1 322//1 155//1
f 156//1 155//1 322//1
f 322//1 323//1 156//1
f 157//1 156//1 323//1
f 323//1 324//1 157//1
f 158//1 157//1 324//1
f 324//1 325//1 158//1
f 159//1 158//1 325//1
f 325//1 326//1 159//1
f 160//1 159//1 326//1
f 326//1 327//1 160//1
f 161//1 160//1 327//1
f 327//1 328//1 161//1
f 162//1 161//1 328//1
f 328//1 329//1 162//1
f 163//1 162//1 329//1
f 329//1 330//1 163//1
f 164//1 163//1 330//1
f 330//1 331//1 164//1
f 165//1 164//1 331//1
f 331//1 332//1 165//1
f 166//1 165//1 332//1
f 332//1 333//1 166//1
f 167//1 166//1 333//1
f 333//1 334//1 167//1
f 1//1 167//1 334//1
f 334//1 168//1 1//1
f 166//2 167//2 1//2
f 168//3 334//3 333//3
f 10//2 11//2 12//2
f 179//3 178//3 177//3
f 12//2 13//2 14//2
f 181//3 180//3 179//3
f 14//2 15//2 16//2
f 183//3 182//3 181//3
f 16//2 17//2 18//2
f 185//3 184//3 183//3
f 18//2 19//2 20//2
f 187//3 186//3 185//3
f 20//2 21//2 22//2
f 189//3 188//3 187//3
f 22//2 23//2 24//2
f 191//3 190//3 189//3
f 24//2 25//2 26//2
f 193//3 192//3 191//3
f 26//2 27//2 28//2
f 195//3 194//3 193//3
f 28//2 29//2 30//2
f 197//3 196//3 195//3
f 30//2 31//2 32//2
f 199//3 198//3 197//3
f 34//2 35//2 36//2
f 203//3 202//3 201//3
f 36//2 37//2 38//2
f 205//3 204//3 203//3
f 38//2 39//2 40//2
f 207//3 206//3 205//3
f 40//2 41//2 42//2
f 209//3 208//3 207//3
f 42//2 43//2 44//2
f 211//3 210//3 209//3
f 50//2 51//2 52//2
f 219//3 218//3 217//3
f 52//2 53//2 54//2
f 221//3 220//3 219//3
f 54//2 55//2 56//2
f 223//3 222//3 221//3
f 56//2 57//2 58//2
f 225//3 224//3 223//3
f 58//2 59//2 60//2
f 227//3 226//3 225//3
f 80//2 81//2 82//2
f 249//3 248//3 247//3
f 83//2 84//2 85//2
f 252//3 251//3 250//3
f 88//2 89//2 90//2
f 257//3 256//3 255//3
f 90//2 91//2 92//2
f 259//3 258//3 257//3
f 92//2 93//2 94//2
f 261//3 260//3 259//3
f 94//2 95//2 96//2
f 263//3 262//3 261//3
f 96//2 97//2 98//2
f 265//3 264//3 263//3
f 98//2 99//2 100//2
f 267//3 266//3 265//3
f 100//2 101//2 102//2
f 269//3 268//3 267//3
f 102//2 103//2 104//2
f 271//3 270//3 269//3
f 104//2 105//2 106//2
f 273//3 272//3 271//3
f 122//2 123//2 124//2
f 291//3 290//3 289//3
f 124//2 125//2 126//2
f 293//3 292//3 291//3
f 126//2 127//2 128//2
f 295//3 294//3 293//3
f 128//2 129//2 130//2
f 297//3 296//3 295//3
f 130//2 131//2 132//2
f 299//3 298//3 297//3
f 132//2 133//2 134//2
f 301//3 300//3 299//3
f 134//2 135//2 136//2
f 303//3 302//3 301//3
f 136//2 137//2 138//2
f 305//3 304//3 303//3
f 138//2 139//2 140//2
f 307//3 306//3 305//3
f 140//2 141//2 142//2
f 309//3 308//3 307//3
f 142//2 143//2 144//2
f 311//3 310//3 309//3
f 144//2 145//2 146//2
f 313//3 312//3 311//3
f 146//2 147//2 148//2
f 315//3 314//3 313//3
f 148//2 149//2 150//2
f 317//3 316//3 315//3
f 150//2 151//2 152//2
f 319//3 318//3 317//3
f 152//2 153//2 154//2
f 321//3 320//3 319//3
f 154//2 155//2 156//2
f 323//3 322//3 321//3
f 156//2 157//2 158//2
f 325//3 324//3 323//3
f 158//2 159//2 160//2
f 327//3 326//3 325//3
f 160//2 161//2 162//2
f 329//3 328//3 327//3
f 162//2 163//2 164//2
f 331//3 330//3 329//3
f 164//2 165//2 166//2
f 333//3 332//3 331//3
f 166//2 1//2 2//2
f 169//3 168//3 333//3
f 10//2 12//2 14//2
f 181//3 179//3 177//3
f 14//2 16//2 18//2
f 185//3 183//3 181//3
f 18//2 20//2 22//2
f 189//3 187//3 185//3
f 22//2 24//2 26//2
f 193//3 191//3 189//3
f 26//2 28//2 30//2
f 197//3 195//3 193//3
f 33//2 34//2 36//2
f 203//3 201//3 200//3
f 36//2 38//2 40//2
f 207//3 205//3 203//3
f 40//2 42//2 44//2
f 211//3 209//3 207//3
f 50//2 52//2 54//2
f 221//3 219//3 217//3
f 54//2 56//2 58//2
f 225//3 223//3 221//3
f 79//2 80//2 82//2
f 249//3 247//3 246//3
f 82//2 83//2 85//2
f 252//3 250//3 249//3
f 88//2 90//2 92//2
f 259//3 257//3 255//3
f 92//2 94//2 96//2
f 263//3 261//3 259//3
f 96//2 98//2 100//2
f 267//3 265//3 263//3
f 100//2 102//2 104//2
f 271//3 269//3 267//3
f 122//2 124//2 126//2
f 293//3 291//3 289//3
f 126//2 128//2 130//2
f 297//3 295//3 293//3
f 130//2 132//2 134//2
f 301//3 299//3 297//3
f 134//2 136//2 138//2
f 305//3 303//3 301//3
f 138//2 140//2 142//2
f 309//3 307//3 305//3
f 142//2 144//2 146//2
f 313//3 311//3 309//3
f 146//2 148//2 150//2
f 317//3 315//3 313//3
f 150//2 152//2 154//2
f 321//3 319//3 317//3
f 154//2 156//2 158//2
f 325//3 323//3 321//3
f 158//2 160//2 162//2
f 329//3 327//3 325//3
f 162//2 164//2 166//2
f 333//3 331//3 329//3
f 166//2 2//2 3//2
f 170//3 169//3 333//3
f 9//2 10//2 14//2
f 181//3 177//3 176//3
f 14//2 18//2 22//2
f 189//3 185//3 181//3
f 22//2 26//2 30//2
f 197//3 193//3 189//3
f 33//2 36//2 40//2
f 207//3 203//3 200//3
f 40//2 44//2 45//2
f 212//3 211//3 207//3
f 50//2 54//2 58//2
f 225//3 221//3 217//3
f 78//2 79//2 82//2
f 249//3 246//3 245//3
f 82//2 85//2 86//2
f 253//3 252//3 249//3
f 88//2 92//2 96//2
f 263//3 259//3 255//3
f 96//2 100//2 104//2
f 271//3 267//3 263//3
f 121//2 122//2 126//2
f 293//3 289//3 288//3
f 126//2 130//2 134//2
f 301//3 297//3 293//3
f 134//2 138//2 142//2
f 309//3 305//3 301//3
f 142//2 146//2 150//2
f 317//3 313//3 309//3
f 150//2 154//2 158//2
f 325//3 321//3 317//3
f 158//2 162//2 166//2
f 333//3 329//3 325//3
f 166//2 3//2 4//2
f 171//3 170//3 333//3
f 8//2 9//2 14//2
f 181//3 176//3 175//3
f 14//2 22//2 30//2
f 197//3 189//3 181//3
f 33//2 40//2 45//2
f 212//3 207//3 200//3
f 49//2 50//2 58//2
f 225//3 217//3 216//3
f 77//2 78//2 82//2
f 249//3 245//3 244//3
f 82//2 86//2 87//2
f 254//3 253//3 249//3
f 88//2 96//2 104//2
f 271//3 263//3 255//3
f 121//2 126//2 134//2
f 301//3 293//3 288//3
f 134//2 142//2 150//2
f 317//3 309//3 301//3
f 150//2 158//2 166//2
f 333//3 325//3 317//3
f 166//2 4//2 5//2
f 172//3 171//3 333//3
f 7//2 8//2 14//2
f 181//3 175//3 174//3
f 14//2 30//2 32//2
f 199//3 197//3 181//3
f 33//2 45//2 46//2
f 213//3 212//3 200//3
f 48//2 49//2 58//2
f 225//3 216//3 215//3
f 76//2 77//2 82//2
f 249//3 244//3 243//3
f 82//2 87//2 88//2
f 255//3 254//3 249//3
f 88//2 104//2 106//2
f 273//3 271//3 255//3
f 120//2 121//2 134//2
f 301//3 288//3 287//3
f 134//2 150//2 166//2
f 333//3 317//3 301//3
f 166//2 5//2 6//2
f 173//3 172//3 333//3
f 6//2 7//2 14//2
f 181//3 174//3 173//3
f 14//2 32//2 33//2
f 200//3 199//3 181//3
f 33//2 46//2 47//2
f 214//3 213//3 200//3
f 47//2 48//2 58//2
f 225//3 215//3 214//3
f 76//2 82//2 88//2
f 255//3 249//3 243//3
f 88//2 106//2 107//2
f 274//3 273//3 255//3
f 119//2 120//2 134//2
f 301//3 287//3 286//3
f 134//2 166//2 6//2
f 173//3 333//3 301//3
f 6//2 14//2 33//2
f 200//3 181//3 173//3
f 33//2 47//2 58//2
f 225//3 214//3 200//3
f 75//2 76//2 88//2
f 255//3 243//3 242//3
f 88//2 107//2 108//2
f 275//3 274//3 255//3
f 118//2 119//2 134//2
f 301//3 286//3 285//3
f 134//2 6//2 33//2
f 200//3 173//3 301//3
f 33//2 58//2 60//2
f 227//3 225//3 200//3
f 74//2 75//2 88//2
f 255//3 242//3 241//3
f 88//2 108//2 109//2
f 276//3 275//3 255//3
f 117//2 118//2 134//2
f 301//3 285//3 284//3
f 134//2 33//2 60//2
f 227//3 200//3 301//3
f 73//2 74//2 88//2
f 255//3 241//3 240//3
f 88//2 109//2 110//2
f 277//3 276//3 255//3
f 116//2 117//2 134//2
f 301//3 284//3 283//3
f 134//2 60//2 61//2
f 228//3 227//3 301//3
f 72//2 73//2 88//2
f 255//3 240//3 239//3
f 88//2 110//2 111//2
f 278//3 277//3 255//3
f 115//2 116//2 134//2
f 301//3 283//3 282//3
f 134//2 61//2 62//2
f 229//3 228//3 301//3
f 71//2 72//2 88//2
f 255//3 239//3 238//3
f 88//2 111//2 112//2
f 279//3 278//3 255//3
f 114//2 115//2 134//2
f 301//3 282//3 281//3
f 134//2 62//2 63//2
f 230//3 229//3 301//3
f 70//2 71//2 88//2
f 255//3 238//3 237//3
f 88//2 112//2 113//2
f 280//3 279//3 255//3
f 113//2 114//2 134//2
f 301//3 281//3 280//3
f 134//2 63//2 64//2
f 231//3 230//3 301//3
f 69//2 70//2 88//2
f 255//3 237//3 236//3
f 88//2 113//2 134//2
f 301//3 280//3 255//3
f 134//2 64//2 65//2
f 232//3 231//3 301//3
f 68//2 69//2 88//2
f 255//3 236//3 235//3
f 88//2 134//2 65//2
f 232//3 301//3 255//3
f 67//2 68//2 88//2
f 255//3 235//3 234//3
f 88//2 65//2 66//2
f 233//3 232//3 255//3
f 66//2 67//2 88//2
f 255//3 234//3 233//3
# Vertices: 334, normals: 3, texture coordinates: 0, faces: 664

